<svg version="1.1" xmlns="http://www.w3.org/2000/svg" viewBox="0 0 48 48" class="LgbsSe-Bz112c"><g><path fill="#EA4335" d="M24 9.5c3.54 0 6.71 1.22 9.21 3.6l6.85-6.85C35.9 2.38 30.47 0 24 0 14.62 0 6.51 5.38 2.56 13.22l7.98 6.19C12.43 13.72 17.7 9.5 24 9.5z"></path><path fill="#4285F4" d="M46.98 24c0-.76-.06-1.5-.18-2.25H24v4.61h12.44c-.67 3.6-2.43 6.66-5.47 8.65l7.98 6.19C44.1 41.53 48 35.82 48 24z"></path><path fill="#FBBC05" d="M10.53 28.59c-.48-1.45-.76-2.99-.76-4.59s.27-3.14.76-4.59l-7.98-6.19C1.94 17.21 0 20.55 0 24c0 3.45 1.94 6.79 4.36 9.59L10.53 28.59z"></path><path fill="#34A853" d="M24 48c6.48 0 11.93-2.13 15.89-5.81l-7.98-6.19c-2.19 1.48-5.04 2.3-7.91 2.3-6.27 0-11.53-4.22-13.47-9.91l-7.98 6.19C6.51 42.62 14.62 48 24 48z"></path><path fill="none" d="M0 0h48v48H0z"></path></g></svg>